<svg xmlns="http://www.w3.org/2000/svg" viewBox="0 0 280 84">
  <title>FOM</title>
  <g fill="#349bfa" transform="translate(0 1)">
    <path d="M3 25h14a4 4 0 0 1 3.4 1.9l9.7 15a4 4 0 0 1 0 4.3l-9.7 15A4 4 0 0 1 17 63H4a3 3 0 0 1-2.5-4.7L10 45a4 4 0 0 0 0-4.3L.5 29.7A3 3 0 0 1 3 25Z"/>
    <path d="M24 13h18a5 5 0 0 1 4.2 2.3l16.2 25a5 5 0 0 1 0 5.4L46.2 71A5 5 0 0 1 42 73H26a4 4 0 0 1-3.4-6.1l13.6-21a5 5 0 0 0 0-5.4l-15.6-21A4 4 0 0 1 24 13Z"/>
    <path d="M50 0h24a6 6 0 0 1 5 2.7l24 36a6 6 0 0 1 0 6.6L79 79.3a6 6 0 0 1-5 2.7H53a5 5 0 0 1-4.2-7.7l20.7-29a6 6 0 0 0 0-6.6L45.8 7.7A5 5 0 0 1 50 0Z"/>
  </g>
  <g fill="#f7f8fa">
    <path d="M118 16h40v11h-28v12h25v11h-25v17h-12Z"/>
    <path fill-rule="evenodd" d="M189 15a27 27 0 1 1 0 54 27 27 0 0 1 0-54Zm0 12a15 15 0 1 0 0 30 15 15 0 0 0 0-30Z"/>
    <path d="M222 16h12l17 19 17-19h12v51h-12V34l-17 18-17-18v33h-12Z"/>
  </g>
</svg>
